<svg id="Ebene_1" data-name="Ebene 1" xmlns="http://www.w3.org/2000/svg" width="69.99" height="69.99" viewBox="0 0 69.99 69.99"><path d="M35,4A31,31,0,1,1,4,35,31,31,0,0,1,35,4m0-3A34,34,0,1,0,69,35,34,34,0,0,0,35,1Z" style="fill:#ff6e00"/><path d="M35,49.75A14.75,14.75,0,1,1,49.75,35,14.77,14.77,0,0,1,35,49.75Zm0-28.62A13.87,13.87,0,1,0,48.87,35,13.88,13.88,0,0,0,35,21.13Z" style="fill:#ff5e00"/><path d="M27,39.18a.44.44,0,0,1-.4-.25A9.27,9.27,0,0,1,41.28,28.19a.43.43,0,0,1,0,.62.44.44,0,0,1-.62,0,8.38,8.38,0,0,0-13.27,9.71.45.45,0,0,1-.21.59A.43.43,0,0,1,27,39.18Z" style="fill:#ff5e00"/><path d="M35,44.26A9.26,9.26,0,0,1,28.88,42a.44.44,0,0,1,0-.62.45.45,0,0,1,.63,0,8.38,8.38,0,0,0,13.46-9,.44.44,0,1,1,.83-.28A9.26,9.26,0,0,1,35,44.26Z" style="fill:#ff5e00"/><path d="M34.72,49.76a24.93,24.93,0,0,1-8-1.57C22.25,46.61,15.76,43.09,10,35.26a.45.45,0,0,1,0-.52c5.78-7.83,12.27-11.35,16.69-12.93A23.68,23.68,0,0,1,35,20.25a.44.44,0,1,1,0,.88c-.13,0-13.35-.46-24.09,13.87C21.65,49.35,34.85,48.87,35,48.87a.44.44,0,0,1,.46.42.44.44,0,0,1-.42.46Z" style="fill:#ff5e00"/><path d="M35.29,49.76H35a.44.44,0,1,1,0-.88c.14,0,13.35.46,24.09-13.87C48.36,20.65,35.15,21.13,35,21.13a.44.44,0,1,1,0-.88,23.68,23.68,0,0,1,8.35,1.56c4.42,1.58,10.91,5.1,16.69,12.93a.45.45,0,0,1,0,.52c-5.78,7.83-12.27,11.35-16.69,12.93A24.93,24.93,0,0,1,35.29,49.76Z" style="fill:#ff5e00"/><path d="M13,35a37.4,37.4,0,0,0,5.35,5.49,12.39,12.39,0,0,1,1-11.81A36.72,36.72,0,0,0,13,35Z" style="fill:#ff5e00"/><path d="M18.75,41l-.48-.4a38.1,38.1,0,0,1-5.38-5.52L12.82,35l.07-.09a37.28,37.28,0,0,1,6.4-6.35L20,28l-.49.74a12.17,12.17,0,0,0-1,11.68Zm-5.56-6A37.41,37.41,0,0,0,18,40a12.49,12.49,0,0,1,.82-10.68A37,37,0,0,0,13.19,35Z" style="fill:#ff5e00"/><path d="M57.2,35a36.42,36.42,0,0,1-5.35,5.49,12.32,12.32,0,0,0-1-11.81A36.72,36.72,0,0,1,57.2,35Z" style="fill:#ff5e00"/><path d="M51.46,41l.25-.57a12.19,12.19,0,0,0-1-11.68l-.5-.74.71.54a37.28,37.28,0,0,1,6.4,6.35l.07.09-.07.09a38.1,38.1,0,0,1-5.38,5.52Zm-.07-11.7A12.49,12.49,0,0,1,52.21,40,37.41,37.41,0,0,0,57,35,37,37,0,0,0,51.39,29.31Z" style="fill:#ff5e00"/><circle cx="35" cy="35" r="6.32" style="fill:#ff5e00"/></svg>