<svg width="1280" height="720" xmlns="http://www.w3.org/2000/svg" xmlns:xlink="http://www.w3.org/1999/xlink" overflow="hidden"><g><rect x="0" y="0" width="1280" height="720" fill="#FFFFFF"/><rect x="604" y="416" width="526" height="6" stroke="#0C445E" stroke-width="2" stroke-miterlimit="8" fill="#084F6A"/><path d="M838 335.801 838 281.335 876.905 200 937.579 201.094 938.968 294.465 1012.15 294.465 1014 378.596 917.663 382 838 335.801Z" stroke="#0C445E" stroke-width="2" stroke-miterlimit="8" fill="#156082" fill-rule="evenodd"/><path d="M863.627 291 853 279.787 884.418 213 926 213 926 290.513 863.627 291Z" stroke="#156082" stroke-width="2" stroke-miterlimit="8" fill="#F2F2F2" fill-rule="evenodd"/><path d="M951.046 384.963C950.045 363.452 965.331 345.134 985.188 344.049 1004.82 342.978 1021.61 359.157 1022.92 380.4L987 383Z" fill="#F2F2F2" fill-rule="evenodd"/><path d="M960 382.5C960 366.76 972.088 354 987 354 1001.91 354 1014 366.76 1014 382.5 1014 398.24 1001.91 411 987 411 972.088 411 960 398.24 960 382.5Z" stroke="#0C445E" stroke-width="2" stroke-miterlimit="8" fill="#156082" fill-rule="evenodd"/><path d="M972 382.5C972 373.94 978.492 367 986.5 367 994.508 367 1001 373.94 1001 382.5 1001 391.06 994.508 398 986.5 398 978.492 398 972 391.06 972 382.5Z" stroke="#0C445E" stroke-width="2" stroke-miterlimit="8" fill="#F2F2F2" fill-rule="evenodd"/><path d="M834.307 337.639C853.065 315.347 884.7 314.003 904.965 334.638 918.608 348.529 924.118 369.6 919.27 389.343L871 375Z" fill="#F2F2F2" fill-rule="evenodd"/><path d="M834 371C834 348.909 850.789 331 871.5 331 892.211 331 909 348.909 909 371 909 393.091 892.211 411 871.5 411 850.789 411 834 393.091 834 371Z" stroke="#0C445E" stroke-width="2" stroke-miterlimit="8" fill="#156082" fill-rule="evenodd"/><path d="M849 371C849 357.745 859.074 347 871.5 347 883.926 347 894 357.745 894 371 894 384.255 883.926 395 871.5 395 859.074 395 849 384.255 849 371Z" stroke="#0C445E" stroke-width="2" stroke-miterlimit="8" fill="#FFFFFF" fill-rule="evenodd"/><rect x="673" y="294" width="157" height="9" stroke="#0C445E" stroke-width="2" stroke-miterlimit="8" fill="#156082"/><rect x="821" y="156" width="9" height="147" stroke="#0C445E" stroke-width="2" stroke-miterlimit="8" fill="#156082"/><path d="M1031 320.493 1032.03 320.493 1032.03 336.507 1031 336.507ZM1033.06 320.493 1035.12 320.493 1035.12 336.507 1033.06 336.507ZM1036.16 320.493 1092.5 320.493 1092.5 312 1109 328.5 1092.5 345 1092.5 336.507 1036.16 336.507Z" fill="#4EA72E" fill-rule="evenodd"/><path d="M661 134.501C661 122.626 670.626 113 682.5 113L768.5 113C780.374 113 790 122.626 790 134.501L790 274.5C790 286.374 780.374 296 768.5 296L682.5 296C670.626 296 661 286.374 661 274.5Z" stroke="#024059" stroke-width="2" stroke-miterlimit="8" fill="#0F9ED5" fill-rule="evenodd"/><path d="M661 285.333C661 282.388 663.388 280 666.333 280L784.667 280C787.612 280 790 282.388 790 285.333L790 306.667C790 309.612 787.612 312 784.667 312L666.333 312C663.388 312 661 309.612 661 306.667Z" stroke="#622C0F" stroke-width="2" stroke-miterlimit="8" fill="#E97132" fill-rule="evenodd"/><rect x="0" y="0" width="353" height="5" stroke="#0C445E" stroke-width="2" stroke-miterlimit="8" fill="#084F6A" transform="matrix(6.12323e-17 1 1 -6.12323e-17 796 64)"/><rect x="0" y="0" width="353" height="5" stroke="#0C445E" stroke-width="2" stroke-miterlimit="8" fill="#084F6A" transform="matrix(6.12323e-17 1 1 -6.12323e-17 627 66)"/><rect x="0" y="0" width="171" height="5" stroke="#0C445E" stroke-width="2" stroke-miterlimit="8" fill="#084F6A" transform="matrix(1 0 0 -1 627 320)"/></g></svg>